<svg width="189" height="106" viewBox="0 0 189 106" fill="none" xmlns="http://www.w3.org/2000/svg">
<path d="M33.1016 32.0179H40.2096V21.2517H49.0965V14.0725H40.2096V6.89589H48.207C48.207 6.89589 49.9833 5.99782 49.9833 0.614716C48.207 0.614716 33.099 0.614716 33.099 0.614716V32.0179H33.1016Z" fill="#F7971D"/>
<path d="M63.3124 0.614716H56.2045V32.0179H63.3124V0.614716Z" fill="#F7971D"/>
<path d="M78.4205 0.614716H71.3125V32.0179H78.4205V0.614716Z" fill="#F7971D"/>
<path d="M71.3125 32.0179H87.3074C87.3074 32.0179 89.9732 27.5329 86.4179 23.9433C83.7521 23.9433 75.7546 23.9433 75.7546 23.9433L71.3125 32.0179Z" fill="#F7971D"/>
<path d="M33.1016 32.0179H40.2096V21.2517H49.0965V14.0725H40.2096V6.89589H48.207C48.207 6.89589 49.9833 5.99782 49.9833 0.614716C48.207 0.614716 33.099 0.614716 33.099 0.614716V32.0179H33.1016Z" fill="#F7971D"/>
<path d="M93.5284 32.0179H100.636V21.2517H109.523V14.0725H100.636V6.89589H108.634C108.634 6.89589 110.41 5.99782 110.41 0.614716C108.634 0.614716 93.5258 0.614716 93.5258 0.614716V32.0179H93.5284Z" fill="#F7971D"/>
<path d="M93.5284 0.614716H100.636V11.3809H109.523V18.5575H100.636V25.7341H108.634C108.634 25.7341 110.41 26.6322 110.41 32.0153C108.634 32.0153 93.5258 32.0153 93.5258 32.0153V0.614716H93.5284Z" fill="#F7971D"/>
<path d="M11.9142 24.8413H0.36145V103.797H11.9142V24.8413Z" fill="white"/>
<path d="M29.6854 44.5803C29.6854 44.5803 18.1327 43.6822 10.1353 53.553C10.1353 66.1153 11.0247 67.0108 11.0247 67.0108C11.0247 67.0108 16.3564 54.4484 28.7985 54.4484C28.7985 54.4484 43.0171 53.5503 40.3513 75.0854C51.0145 65.2173 51.0145 65.2173 51.0145 65.2173C51.0145 65.2173 51.0145 44.5803 29.6854 44.5803Z" fill="white"/>
<path d="M62.5672 45.4757V59.8315L40.7947 81.8143V103.794H51.0145V86.747L73.2304 64.3165V45.4757H62.5672Z" fill="white"/>
<path d="M102.554 45.4757V79.5704L113.661 68.3565V45.4783C113.664 45.4757 101.977 44.8929 102.554 45.4757Z" fill="white"/>
<path d="M73.2304 71.4958L62.5671 82.262C62.5671 82.262 64.3435 105.591 86.5594 105.591C108.775 105.591 138.099 65.2146 138.099 65.2146C138.099 65.2146 146.097 54.4484 159.426 54.4484C172.755 54.4484 177.2 67.9062 177.2 75.0854C177.2 82.2646 170.978 94.8243 157.649 94.8243C144.32 94.8243 136.323 79.5704 138.099 72.3938C128.326 82.262 127.436 83.16 127.436 83.16V103.797H138.989V97.5159C138.989 97.5159 147.876 105.591 157.649 105.591C167.423 105.591 188.752 96.6178 188.752 75.9835C188.752 55.3491 172.757 44.5803 160.315 44.5803C147.873 44.5803 138.989 51.7569 138.989 51.7569V24.8413H128.326V60.7296L97.2227 91.2347C97.2227 91.2347 91.891 94.8243 85.67 94.8243C79.4489 94.8243 71.4514 88.5432 73.2304 71.4958Z" fill="#F7971D"/>
</svg>
